<svg width="143" height="143" viewBox="0 0 143 143" fill="none" xmlns="http://www.w3.org/2000/svg">
<path d="M11.1142 63.0751L11.0478 65.8935C10.5837 65.963 10.1708 66.1016 9.80897 66.3092C9.44216 66.5167 9.12938 66.7783 8.87061 67.0939C8.61184 67.4095 8.41481 67.7718 8.27951 68.1808C8.1393 68.5846 8.06364 69.0227 8.05251 69.4949C8.03275 70.3339 8.22623 71.0824 8.63297 71.7404C9.03469 72.3983 9.63564 72.9202 10.4358 73.306C11.231 73.6917 12.2089 73.8982 13.3694 73.9255C14.55 73.9533 15.549 73.7934 16.3665 73.4457C17.1791 73.0929 17.7989 72.5998 18.226 71.9664C18.6482 71.3279 18.8692 70.5917 18.8888 69.7577C18.8997 69.2955 18.8496 68.8621 18.7385 68.4573C18.6225 68.0474 18.4477 67.6789 18.2141 67.3517C17.9807 67.0194 17.6907 66.7387 17.3442 66.5093C16.9979 66.275 16.5997 66.1098 16.1495 66.0137L16.231 63.1957C16.962 63.3184 17.6449 63.5632 18.2796 63.9301C18.9145 64.2919 19.4715 64.7599 19.9506 65.3342C20.4247 65.9083 20.791 66.5754 21.0495 67.3355C21.3031 68.0955 21.419 68.9352 21.3973 69.8545C21.3654 71.211 21.0229 72.4143 20.3698 73.4646C19.7167 74.5149 18.7902 75.3325 17.5901 75.9175C16.39 76.5025 14.961 76.7754 13.3032 76.7364C11.6403 76.6972 10.2258 76.3547 9.05974 75.709C7.88867 75.0631 7.00168 74.2003 6.39879 73.1204C5.7959 72.0406 5.51031 70.8274 5.54202 69.481C5.56226 68.622 5.70165 67.826 5.96019 67.0932C6.21874 66.3603 6.58842 65.7106 7.06925 65.1438C7.54506 64.577 8.12394 64.1156 8.80589 63.7597C9.48294 63.3986 10.2524 63.1704 11.1142 63.0751Z" fill="white"/>
<path d="M22.6717 58.7107L11.6564 55.1446L12.4712 52.6275L14.3071 53.2218L14.3443 53.1071C13.7734 52.7004 13.3948 52.1975 13.2085 51.5984C13.0189 50.993 13.0262 50.3747 13.2305 49.7437C13.277 49.6002 13.336 49.4424 13.4076 49.2701C13.476 49.0916 13.5414 48.9464 13.604 48.8346L15.9921 49.6077C15.9183 49.7053 15.8283 49.8689 15.7223 50.0987C15.613 50.3221 15.5227 50.5438 15.4515 50.7637C15.2983 51.2371 15.2633 51.6958 15.3466 52.1401C15.4267 52.578 15.6112 52.9626 15.9001 53.2938C16.1891 53.625 16.5678 53.8665 17.0363 54.0182L23.5121 56.1146L22.6717 58.7107Z" fill="white"/>
<path d="M29.4316 44.1161C28.8005 45.0904 28.053 45.8007 27.1891 46.247C26.3238 46.6864 25.3949 46.8541 24.4025 46.7501C23.4058 46.6434 22.3993 46.2609 21.3828 45.6025C20.3832 44.955 19.6288 44.197 19.1197 43.3283C18.6091 42.4528 18.3656 41.5346 18.3891 40.5739C18.4085 39.6105 18.7186 38.6648 19.3197 37.7369C19.7076 37.138 20.1707 36.6357 20.7089 36.2299C21.2457 35.8172 21.8469 35.536 22.5126 35.3864C23.181 35.2326 23.9018 35.2384 24.6748 35.4038C25.4435 35.5665 26.2539 35.9238 27.1059 36.4756L27.8082 36.9305L22.6488 44.8958L21.1051 43.8959L24.8425 38.126C24.4011 37.8461 23.9495 37.6882 23.4876 37.6525C23.0216 37.6141 22.5815 37.6973 22.1675 37.9021C21.7561 38.1027 21.4084 38.4223 21.1243 38.8609C20.821 39.3291 20.6685 39.8141 20.6668 40.3159C20.6609 40.815 20.7772 41.2825 21.0157 41.7184C21.2528 42.1474 21.5871 42.5047 22.0188 42.7903L23.3664 43.6631C23.9316 44.0292 24.4836 44.2401 25.0223 44.2957C25.5569 44.3485 26.0519 44.2591 26.5075 44.0272C26.9588 43.7927 27.3456 43.4265 27.668 42.9288C27.8838 42.5956 28.0327 42.264 28.1148 41.934C28.1926 41.6012 28.203 41.2756 28.1458 40.9571C28.0886 40.6387 27.9557 40.3401 27.7471 40.0613L29.3727 38.0786C29.8504 38.5796 30.1772 39.1566 30.3531 39.8094C30.5275 40.4552 30.5409 41.1464 30.3931 41.8829C30.2411 42.6167 29.9206 43.3611 29.4316 44.1161Z" fill="white"/>
<path d="M37.9974 34.0924C37.4366 34.5656 36.8474 34.8919 36.2295 35.0714C35.6122 35.2438 35.0061 35.2424 34.4111 35.0672C33.82 34.8887 33.2797 34.5095 32.7904 33.9296C32.369 33.4304 32.1128 32.9397 32.0217 32.4577C31.9306 31.9757 31.9617 31.5023 32.1152 31.0374C32.2687 30.5725 32.503 30.1216 32.8182 29.6847C33.1339 29.2408 33.4874 28.8142 33.8787 28.4052C34.3518 27.9139 34.7318 27.511 35.0188 27.1965C35.3025 26.8782 35.4784 26.6114 35.5466 26.396C35.6153 26.1736 35.5655 25.9626 35.3969 25.7629L35.3678 25.7283C35.0016 25.2943 34.5893 25.0668 34.1311 25.0459C33.6728 25.0249 33.2017 25.2186 32.7178 25.6269C32.207 26.058 31.8958 26.5112 31.7842 26.9868C31.6765 27.4591 31.6988 27.8907 31.8511 28.2816L29.6706 29.6482C29.3705 28.9809 29.2448 28.3177 29.2935 27.6585C29.3389 26.9955 29.5409 26.3582 29.8994 25.7466C30.2546 25.1313 30.7414 24.5627 31.3597 24.0409C31.786 23.6812 32.2525 23.373 32.7592 23.1163C33.266 22.8597 33.7913 22.6991 34.3352 22.6346C34.876 22.5663 35.4172 22.6389 35.959 22.8524C36.5046 23.0626 37.0254 23.4615 37.5213 24.0491L42.5187 29.9713L40.5139 31.663L39.4882 30.4475L39.4191 30.5058C39.4997 30.8586 39.5156 31.2397 39.4667 31.6492C39.4183 32.0517 39.2764 32.464 39.041 32.8863C38.8061 33.3015 38.4582 33.7035 37.9974 34.0924ZM37.2458 32.1031C37.6644 31.7498 37.9576 31.361 38.1255 30.9365C38.2902 30.5083 38.3384 30.0862 38.2702 29.6703C38.2058 29.2512 38.0359 28.8784 37.7604 28.552L36.8805 27.5093C36.8606 27.6181 36.7914 27.7621 36.6728 27.941C36.5581 28.1167 36.4193 28.3029 36.2564 28.4995C36.0936 28.6961 35.9294 28.8873 35.7639 29.073C35.5984 29.2587 35.4546 29.4194 35.3325 29.5553C35.0571 29.8601 34.837 30.1642 34.6722 30.4676C34.5075 30.771 34.4269 31.0691 34.4307 31.3618C34.4312 31.6507 34.5449 31.9296 34.7717 32.1985C35.0958 32.5825 35.4807 32.7542 35.9263 32.7135C36.372 32.6727 36.8118 32.4693 37.2458 32.1031Z" fill="white"/>
<path d="M47.175 14.4032L48.0937 16.3034L42.1014 19.2007L41.1827 17.3005L47.175 14.4032ZM41.4547 14.0879L43.9113 12.9001L48.6427 22.6859C48.8024 23.0162 48.9747 23.2455 49.1595 23.3738C49.3467 23.4954 49.5393 23.5474 49.7373 23.5298C49.9354 23.5122 50.1362 23.4542 50.3397 23.3558C50.4936 23.2814 50.6283 23.2023 50.7441 23.1184C50.8644 23.0323 50.954 22.9638 51.0132 22.9129L52.3557 24.6333C52.2464 24.742 52.0827 24.8825 51.8646 25.0549C51.6511 25.2252 51.3723 25.399 51.0283 25.5765C50.4218 25.8921 49.8227 26.0673 49.2312 26.1022C48.6374 26.1325 48.0908 26.0005 47.5912 25.7061C47.0962 25.4096 46.6934 24.9345 46.383 24.2809L41.4547 14.0879Z" fill="white"/>
<path d="M56.8483 23.2577L53.86 12.0718L56.4963 11.3675L59.4846 22.5534L56.8483 23.2577ZM54.7613 10.1301C54.3438 10.2416 53.9475 10.1993 53.5726 10.0029C53.1964 9.80176 52.9557 9.50455 52.8507 9.11129C52.7443 8.71318 52.8047 8.33555 53.0318 7.9784C53.2575 7.6164 53.5792 7.37963 53.9967 7.26808C54.4191 7.15524 54.816 7.20006 55.1874 7.40253C55.5623 7.59885 55.803 7.89607 55.9093 8.29418C56.0144 8.68743 55.954 9.06506 55.7282 9.42707C55.506 9.78292 55.1837 10.0173 54.7613 10.1301Z" fill="white"/>
<path d="M74.8062 9.43361L71.0645 21.1407L68.0509 21.2395L63.5506 9.80255L66.4587 9.70723L69.3999 18.2162L69.5204 18.2122L71.9056 9.52868L74.8062 9.43361Z" fill="white"/>
<path d="M84.2524 23.1052C83.1313 22.8041 82.2256 22.3112 81.5354 21.6263C80.8513 20.9379 80.4062 20.1055 80.2001 19.1292C79.9952 18.148 80.0499 17.0726 80.3639 15.903C80.6728 14.7527 81.1623 13.8019 81.8323 13.0504C82.5086 12.2954 83.3074 11.7814 84.2288 11.5085C85.1515 11.2308 86.1468 11.2353 87.2145 11.522C87.9037 11.707 88.524 11.9933 89.0756 12.3807C89.6333 12.7646 90.0857 13.2503 90.4327 13.8378C90.7845 14.4266 91.0005 15.1142 91.0807 15.9006C91.1622 16.6822 91.0714 17.5632 90.8081 18.5435L90.5911 19.3516L81.4256 16.8905L81.9026 15.1142L88.5419 16.897C88.6726 16.3909 88.684 15.9127 88.576 15.4622C88.4693 15.0069 88.2549 14.6137 87.9327 14.2826C87.6154 13.9529 87.2044 13.7202 86.6996 13.5847C86.1609 13.44 85.6525 13.444 85.1745 13.5966C84.6977 13.7444 84.2886 13.9987 83.9471 14.3597C83.6118 14.7172 83.3746 15.1452 83.2355 15.6438L82.8191 17.1944C82.6445 17.8448 82.6135 18.4348 82.7262 18.9646C82.8402 19.4895 83.0775 19.9331 83.4382 20.2953C83.8001 20.6526 84.2674 20.9082 84.8401 21.062C85.2235 21.1649 85.5849 21.2047 85.9242 21.1814C86.2647 21.1532 86.5778 21.0629 86.8632 20.9106C87.1487 20.7583 87.392 20.5401 87.5932 20.2559L89.9795 21.1932C89.6496 21.8019 89.2011 22.2902 88.6339 22.6583C88.073 23.0228 87.4193 23.2479 86.673 23.3337C85.9281 23.4146 85.1212 23.3385 84.2524 23.1052Z" fill="white"/>
<path d="M104.428 33.6749L100.589 30.1216L111.075 18.7918L114.992 22.4169C116.117 23.458 116.873 24.5791 117.261 25.7803C117.656 26.9812 117.68 28.2053 117.334 29.4526C116.987 30.7 116.269 31.9119 115.18 33.0884C114.088 34.2686 112.93 35.0797 111.706 35.5218C110.486 35.9672 109.255 36.0362 108.012 35.7286C106.774 35.4245 105.579 34.7399 104.428 33.6749ZM104.285 30.2453L105.972 31.807C106.762 32.5374 107.553 33.0029 108.347 33.2034C109.144 33.4001 109.941 33.3337 110.739 33.0041C111.541 32.6709 112.342 32.0709 113.145 31.2042C113.947 30.3375 114.48 29.4955 114.743 28.678C115.01 27.8569 115.015 27.0637 114.758 26.2985C114.508 25.5329 113.999 24.7952 113.232 24.0852L111.484 22.4672L104.285 30.2453Z" fill="white"/>
<path d="M115.179 47.5873C114.627 46.5661 114.362 45.5695 114.385 44.5974C114.415 43.6273 114.714 42.7319 115.281 41.9111C115.853 41.0879 116.671 40.3883 117.737 39.8124C118.785 39.2461 119.812 38.948 120.818 38.9181C121.831 38.8903 122.754 39.1172 123.585 39.5988C124.421 40.0781 125.102 40.804 125.628 41.7765C125.967 42.4043 126.186 43.0516 126.283 43.7186C126.388 44.3875 126.346 45.0499 126.158 45.7058C125.972 46.366 125.621 46.9955 125.105 47.5944C124.593 48.1908 123.891 48.7304 122.998 49.2131L122.262 49.6109L117.749 41.2623L119.367 40.3877L122.636 46.4353C123.094 46.1824 123.449 45.8619 123.702 45.4738C123.959 45.0834 124.097 44.6574 124.116 44.1958C124.138 43.7387 124.024 43.2802 123.776 42.8205C123.51 42.3298 123.158 41.9633 122.719 41.721C122.284 41.4763 121.818 41.354 121.321 41.3541C120.831 41.3562 120.357 41.4782 119.899 41.7199L118.486 42.4833C117.894 42.8035 117.444 43.1867 117.137 43.6327C116.834 44.0763 116.675 44.5536 116.66 45.0645C116.649 45.573 116.785 46.088 117.067 46.6097C117.255 46.9589 117.475 47.2487 117.725 47.4791C117.98 47.7071 118.26 47.8724 118.567 47.975C118.874 48.0776 119.2 48.1043 119.545 48.0551L120.504 50.4326C119.835 50.6114 119.172 50.6213 118.515 50.4624C117.865 50.3055 117.252 49.9855 116.677 49.5025C116.106 49.017 115.607 48.3786 115.179 47.5873Z" fill="white"/>
<path d="M129.616 63.8356L128.842 61.4562C129.073 61.336 129.279 61.1671 129.46 60.9497C129.641 60.7373 129.769 60.4745 129.842 60.1614C129.915 59.8484 129.908 59.4853 129.822 59.0721C129.706 58.5162 129.488 58.0741 129.168 57.7457C128.848 57.4222 128.498 57.3031 128.115 57.3882C127.784 57.4521 127.541 57.6286 127.386 57.9178C127.232 58.2118 127.149 58.6605 127.136 59.2638L127.127 61.2833C127.12 62.4039 126.92 63.2774 126.527 63.9036C126.135 64.5348 125.534 64.9377 124.724 65.1122C124.009 65.2564 123.336 65.1789 122.704 64.8798C122.077 64.5846 121.535 64.1048 121.078 63.4406C120.621 62.7763 120.294 61.9719 120.097 61.0275C119.807 59.6403 119.864 58.4631 120.267 57.4957C120.676 56.5273 121.384 55.853 122.393 55.4727L123.189 58.0249C122.702 58.2499 122.368 58.5814 122.187 59.0196C122.007 59.4578 121.981 59.9843 122.109 60.5992C122.242 61.2337 122.479 61.7156 122.82 62.0448C123.162 62.3789 123.524 62.5059 123.908 62.4257C124.233 62.3578 124.475 62.1764 124.634 61.8813C124.794 61.5912 124.876 61.1736 124.88 60.6285L124.882 58.6105C124.881 57.4761 125.094 56.5922 125.521 55.9588C125.953 55.3243 126.583 54.9231 127.411 54.7554C128.108 54.6045 128.753 54.6674 129.344 54.9442C129.942 55.2248 130.453 55.6802 130.877 56.3103C131.308 56.9442 131.617 57.7138 131.807 58.6189C132.084 59.947 132.02 61.0514 131.613 61.932C131.208 62.8176 130.542 63.4521 129.616 63.8356Z" fill="white"/>
<path d="M121.405 70.5618L132.981 70.7552L132.936 73.4836L121.359 73.2902L121.405 70.5618ZM134.602 72.1544C134.609 71.7223 134.758 71.3528 135.05 71.0461C135.346 70.7394 135.698 70.5895 136.105 70.5963C136.517 70.6032 136.864 70.7648 137.145 71.0811C137.431 71.3975 137.571 71.7717 137.563 72.2039C137.556 72.641 137.404 73.0104 137.108 73.312C136.816 73.6187 136.464 73.7687 136.052 73.7618C135.645 73.755 135.299 73.5934 135.012 73.277C134.731 72.9657 134.594 72.5915 134.602 72.1544Z" fill="white"/>
<path d="M115.406 82.4719C115.654 81.5239 115.996 80.7434 116.432 80.1303C116.863 79.5159 117.347 79.0581 117.883 78.7569C118.419 78.4558 118.968 78.2931 119.53 78.2689L119.483 80.7969C119.237 80.8466 118.98 80.9455 118.712 81.0936C118.44 81.2405 118.188 81.4681 117.957 81.7763C117.719 82.0881 117.531 82.509 117.392 83.0389C117.196 83.7875 117.216 84.4551 117.452 85.0416C117.684 85.6268 118.212 86.0276 119.039 86.244L121.161 86.7997L121.195 86.6684C120.958 86.461 120.731 86.1885 120.513 85.8509C120.294 85.5181 120.143 85.1124 120.06 84.6337C119.977 84.1598 120.019 83.602 120.187 82.9603C120.412 82.0999 120.818 81.3725 121.405 80.7781C121.996 80.1899 122.748 79.7948 123.664 79.5929C124.582 79.3972 125.652 79.4591 126.872 79.7786C128.102 80.1007 129.086 80.5767 129.825 81.2065C130.568 81.8425 131.066 82.5678 131.32 83.3825C131.579 84.1983 131.596 85.0365 131.371 85.897C131.199 86.5532 130.946 87.0636 130.612 87.4279C130.281 87.7984 129.927 88.0694 129.549 88.2407C129.177 88.4133 128.837 88.5295 128.531 88.5895L128.493 88.7353L130.345 89.2204L129.663 91.8236L118.28 88.8427C117.323 88.5919 116.59 88.1559 116.083 87.5348C115.575 86.9136 115.27 86.166 115.166 85.2922C115.062 84.4183 115.142 83.4782 115.406 82.4719ZM122.065 84.2392C121.919 84.7982 121.93 85.3103 122.099 85.7753C122.268 86.2404 122.581 86.6418 123.038 86.9797C123.495 87.3175 124.081 87.58 124.796 87.7672C125.5 87.9518 126.145 88.0114 126.728 87.9459C127.31 87.8854 127.798 87.6964 128.193 87.379C128.592 87.0678 128.865 86.6278 129.014 86.059C129.168 85.4708 129.144 84.9397 128.941 84.4657C128.737 83.9917 128.395 83.5851 127.912 83.2457C127.434 82.9077 126.858 82.6501 126.182 82.4732C125.497 82.2937 124.87 82.2361 124.303 82.3005C123.739 82.371 123.262 82.5656 122.872 82.8842C122.485 83.209 122.217 83.6607 122.065 84.2392Z" fill="white"/>
<path d="M120.663 99.6122L114.924 95.995L116.379 93.6865L126.174 99.8598L124.784 102.066L123.119 101.017L123.047 101.132C123.453 101.703 123.663 102.337 123.675 103.034C123.685 103.735 123.459 104.451 122.998 105.182C122.572 105.858 122.056 106.356 121.451 106.675C120.843 106.999 120.178 107.126 119.455 107.057C118.73 106.992 117.978 106.711 117.198 106.213L110.961 102.283L112.416 99.9743L118.296 103.68C118.951 104.093 119.57 104.245 120.154 104.138C120.736 104.036 121.214 103.687 121.589 103.091C121.844 102.688 121.981 102.272 122.001 101.845C122.022 101.425 121.923 101.021 121.704 100.633C121.482 100.25 121.135 99.9096 120.663 99.6122Z" fill="white"/>
<path d="M100.206 112.426L102.791 110.933L105.81 127.018L102.821 128.746L90.3843 118.103L92.9687 116.609L102.679 125.171L102.783 125.111L100.206 112.426ZM103.15 117.716L96.1018 121.789L94.9779 119.845L102.026 115.771L103.15 117.716Z" fill="white"/>
<path d="M80.2099 115.913C81.1722 115.728 82.024 115.7 82.7651 115.828C83.5053 115.952 84.1269 116.191 84.6299 116.544C85.1329 116.898 85.5165 117.323 85.7809 117.82L83.4802 118.869C83.3289 118.668 83.1288 118.478 82.8798 118.301C82.6298 118.119 82.3159 117.99 81.938 117.914C81.5542 117.834 81.0934 117.846 80.5555 117.95C79.7955 118.096 79.2019 118.402 78.7746 118.868C78.3464 119.329 78.213 119.979 78.3743 120.818L78.7884 122.972L78.9217 122.946C79.0067 122.643 79.1545 122.321 79.365 121.978C79.5705 121.637 79.8715 121.326 80.2678 121.045C80.6592 120.765 81.1806 120.562 81.832 120.437C82.7054 120.269 83.5369 120.321 84.3262 120.594C85.1116 120.873 85.7928 121.382 86.3698 122.12C86.9428 122.865 87.3483 123.856 87.5865 125.095C87.8265 126.344 87.8218 127.437 87.5724 128.375C87.319 129.32 86.8797 130.082 86.2544 130.663C85.6302 131.249 84.8813 131.625 84.0078 131.793C83.3416 131.921 82.772 131.913 82.299 131.769C81.8221 131.63 81.4249 131.428 81.1076 131.161C80.7912 130.9 80.5398 130.644 80.3534 130.393L80.2054 130.421L80.5669 132.301L77.9242 132.81L75.7026 121.255C75.5157 120.282 75.593 119.433 75.9344 118.708C76.2759 117.982 76.8185 117.384 77.5621 116.913C78.3058 116.443 79.1884 116.109 80.2099 115.913ZM81.4885 122.683C80.921 122.792 80.464 123.023 80.1174 123.376C79.7708 123.73 79.5437 124.185 79.436 124.743C79.3284 125.301 79.3443 125.943 79.4838 126.668C79.6214 127.384 79.8455 127.991 80.1562 128.489C80.4619 128.988 80.8431 129.347 81.2998 129.566C81.7525 129.791 82.2675 129.848 82.8449 129.737C83.442 129.622 83.9105 129.371 84.2505 128.983C84.5904 128.596 84.8094 128.111 84.9073 127.529C85.0062 126.952 84.9898 126.321 84.8579 125.635C84.7241 124.939 84.5057 124.349 84.2028 123.865C83.896 123.387 83.5147 123.04 83.059 122.826C82.5993 122.618 82.0758 122.57 81.4885 122.683Z" fill="white"/>
<path d="M65.4463 120.813C66.5993 120.947 67.5671 121.303 68.3497 121.88C69.1266 122.462 69.6882 123.221 70.0342 124.157C70.3796 125.097 70.4821 126.169 70.3416 127.372C70.2034 128.555 69.8575 129.567 69.3039 130.408C68.7447 131.254 68.0292 131.878 67.1573 132.282C66.2849 132.691 65.2996 132.832 64.2015 132.704C63.4927 132.621 62.8373 132.428 62.2352 132.125C61.6275 131.826 61.1093 131.411 60.6806 130.881C60.2468 130.349 59.933 129.701 59.7392 128.934C59.5448 128.173 59.5065 127.288 59.6243 126.28L59.7214 125.449L69.1475 126.55L68.9341 128.377L62.106 127.579C62.0503 128.099 62.1087 128.574 62.2811 129.003C62.4529 129.438 62.7222 129.796 63.0891 130.077C63.4511 130.357 63.8916 130.527 64.4107 130.588C64.9647 130.653 65.4671 130.575 65.9179 130.354C66.368 130.139 66.7358 129.827 67.0211 129.421C67.3008 129.018 67.4732 128.56 67.5383 128.047L67.7246 126.452C67.8027 125.783 67.7475 125.195 67.5589 124.687C67.3697 124.184 67.0703 123.78 66.6608 123.474C66.2507 123.173 65.7512 122.988 65.1622 122.92C64.7679 122.874 64.4046 122.887 64.0724 122.959C63.7395 123.037 63.443 123.172 63.1827 123.364C62.9225 123.556 62.7135 123.807 62.5558 124.118L60.0584 123.538C60.2963 122.888 60.669 122.339 61.1765 121.892C61.6785 121.45 62.2924 121.132 63.0182 120.939C63.7435 120.75 64.5529 120.708 65.4463 120.813Z" fill="white"/>
<path d="M50.3885 124.243L53.1359 118.04L55.6308 119.145L50.9419 129.731L48.5572 128.675L49.354 126.876L49.2299 126.821C48.7239 127.306 48.127 127.605 47.4394 127.718C46.7471 127.829 46.0058 127.71 45.2155 127.36C44.485 127.036 43.9178 126.598 43.514 126.045C43.1056 125.491 42.8834 124.851 42.8472 124.126C42.8065 123.399 42.9757 122.614 43.3547 121.77L46.3403 115.03L48.8352 116.135L46.0206 122.489C45.7072 123.197 45.6458 123.832 45.8363 124.395C46.0222 124.955 46.4368 125.378 47.0801 125.663C47.5166 125.856 47.9476 125.932 48.3731 125.889C48.7919 125.849 49.1772 125.693 49.5289 125.42C49.876 125.145 50.1626 124.753 50.3885 124.243Z" fill="white"/>
<path d="M38.4868 108.863C39.3617 109.618 39.9473 110.458 40.2433 111.384C40.5356 112.307 40.5588 113.253 40.3129 114.223C40.0599 115.192 39.5509 116.121 38.7859 117.007C38.0176 117.897 37.1683 118.535 36.2382 118.92C35.3048 119.31 34.362 119.425 33.4098 119.267C32.4504 119.11 31.5428 118.662 30.6868 117.923C29.9754 117.309 29.4591 116.634 29.1379 115.899C28.8095 115.164 28.687 114.418 28.7703 113.66C28.8503 112.906 29.14 112.193 29.6394 111.522L31.6137 113.226C31.3292 113.718 31.2157 114.234 31.2732 114.775C31.3237 115.316 31.5981 115.802 32.0965 116.232C32.5187 116.596 32.9881 116.802 33.5047 116.85C34.018 116.901 34.5463 116.793 35.0895 116.525C35.629 116.254 36.1532 115.823 36.6621 115.234C37.1776 114.636 37.5334 114.047 37.7294 113.466C37.9222 112.889 37.9608 112.348 37.8454 111.844C37.7228 111.34 37.4466 110.902 37.0167 110.531C36.7124 110.269 36.3911 110.091 36.053 109.998C35.7077 109.906 35.3581 109.9 35.004 109.979C34.65 110.058 34.3063 110.23 33.9729 110.493L31.9985 108.789C32.5832 108.211 33.2402 107.819 33.9697 107.613C34.6959 107.41 35.4475 107.408 36.2247 107.607C36.9985 107.81 37.7526 108.229 38.4868 108.863Z" fill="white"/>
<path d="M34.3922 98.5423C34.5926 98.8556 34.7527 99.1618 34.8726 99.4609C34.9939 99.7532 35.073 99.9979 35.1097 100.195L32.9779 100.807C32.8613 100.411 32.7169 100.083 32.5448 99.8228C32.3726 99.5631 32.1424 99.3852 31.8543 99.2892C31.5677 99.1862 31.1955 99.1827 30.7379 99.2787L30.085 99.419L22.3921 109.326L20.832 106.888L26.7591 99.9274L26.6941 99.8258L17.8866 102.284L16.3224 99.84L29.7546 96.7489C30.3875 96.6005 30.9842 96.5587 31.5447 96.6236C32.1095 96.6858 32.6288 96.8726 33.1025 97.184C33.5777 97.4885 34.0076 97.9412 34.3922 98.5423Z" fill="white"/>
<path d="M20.5925 86.6199C20.6162 87.0361 20.5602 87.4319 20.4246 87.8073C20.2889 88.1809 20.0905 88.5149 19.8296 88.8094C19.5667 89.1021 19.2574 89.3381 18.9018 89.5173C18.5461 89.6947 18.1592 89.7943 17.741 89.8162C17.3228 89.8382 16.927 89.7812 16.5534 89.6455C16.1797 89.5078 15.8466 89.3085 15.554 89.0475C15.2595 88.7866 15.0236 88.4783 14.8463 88.1226C14.6689 87.7669 14.5684 87.3809 14.5447 86.9648C14.5208 86.5467 14.5768 86.1509 14.7125 85.7773C14.8482 85.4019 15.0475 85.0687 15.3106 84.7779C15.5716 84.4854 15.88 84.2504 16.2357 84.0731C16.5913 83.8957 16.9782 83.7942 17.3961 83.7684C17.8141 83.7427 18.2099 83.7977 18.5834 83.9334C18.957 84.0692 19.291 84.2675 19.5855 84.5284C19.8781 84.7895 20.1131 85.0988 20.2906 85.4564C20.468 85.814 20.5686 86.2018 20.5925 86.6199Z" fill="white"/>
<g clip-path="url(#clip0_489_5290)">
<mask id="mask0_489_5290" style="mask-type:luminance" maskUnits="userSpaceOnUse" x="46" y="45" width="50" height="50">
<path d="M95.5202 45.3635H46.4751V94.4086H95.5202V45.3635Z" fill="white"/>
</mask>
<g mask="url(#mask0_489_5290)">
<path fill-rule="evenodd" clip-rule="evenodd" d="M71.7684 45.3635C72.3101 45.3635 72.7493 45.8027 72.7493 46.3444V55.8285C72.7493 56.9066 74.2359 57.1956 74.6397 56.1959L78.1923 47.4025C78.3954 46.9002 78.967 46.6575 79.4695 46.8604L80.8986 47.4379C81.4009 47.6408 81.6436 48.2125 81.4406 48.7148L77.6531 58.0895C77.2526 59.0802 78.5003 59.9061 79.2561 59.1505L86.4054 52.001C86.7887 51.618 87.4096 51.618 87.7927 52.001L88.8827 53.091C89.2657 53.474 89.2657 54.0951 88.8827 54.4782L82.4624 60.8984C81.6961 61.6648 82.5556 62.9248 83.5488 62.4909L91.8688 58.8557C92.3654 58.6388 92.9436 58.8654 93.1604 59.3619L93.7776 60.7744C93.9944 61.2708 93.7678 61.849 93.2715 62.0659L83.6842 66.2547C82.7101 66.6803 83.014 68.1345 84.0768 68.1345H94.5393C95.081 68.1345 95.5202 68.5736 95.5202 69.1154V70.6568C95.5202 71.1985 95.081 71.6377 94.5393 71.6377H84.077C83.014 71.6377 82.7104 73.0919 83.6842 73.5174L93.2715 77.7063C93.7678 77.9231 93.9944 78.5013 93.7776 78.9977L93.1604 80.4102C92.9436 80.9068 92.3654 81.1334 91.8688 80.9163L83.5488 77.2813C82.5556 76.8473 81.6961 78.1073 82.4624 78.8738L88.8827 85.2938C89.2657 85.6771 89.2657 86.298 88.8827 86.6811L87.7927 87.7711C87.4096 88.1542 86.7887 88.1542 86.4054 87.7711L79.2561 80.6216C78.5003 79.866 77.2526 80.6919 77.6531 81.6827L81.4406 91.0574C81.6436 91.5596 81.4009 92.1312 80.8986 92.3343L79.4695 92.9118C78.967 93.1146 78.3954 92.8721 78.1923 92.3696L74.6397 83.5763C74.2359 82.5765 72.7493 82.8656 72.7493 83.9436V93.4277C72.7493 93.9694 72.3101 94.4086 71.7684 94.4086H70.2269C69.6852 94.4086 69.246 93.9694 69.246 93.4277V83.9436C69.246 82.8656 67.7595 82.5765 67.3557 83.5763L63.8029 92.3696C63.5999 92.8721 63.0282 93.1146 62.5259 92.9118L61.0967 92.3343C60.5944 92.1312 60.3518 91.5596 60.5547 91.0574L64.3424 81.6827C64.7427 80.6919 63.4949 79.866 62.7393 80.6216L55.5898 87.7711C55.2067 88.1542 54.5856 88.1542 54.2026 87.7711L53.1126 86.6811C52.7296 86.298 52.7296 85.6771 53.1126 85.2938L59.5328 78.8736C60.2993 78.1073 59.4398 76.8473 58.4465 77.2813L50.1264 80.9163C49.63 81.1334 49.0517 80.9068 48.8348 80.4102L48.2177 78.9977C48.0008 78.5013 48.2274 77.9231 48.7238 77.7063L58.3111 73.5174C59.285 73.0919 58.9812 71.6377 57.9184 71.6377H47.456C46.9143 71.6377 46.4751 71.1985 46.4751 70.6568V69.1154C46.4751 68.5736 46.9143 68.1345 47.456 68.1345H57.9184C58.9813 68.1345 59.2851 66.6803 58.3111 66.2547L48.7238 62.0659C48.2274 61.849 48.0008 61.2708 48.2177 60.7744L48.8348 59.3619C49.0517 58.8654 49.6299 58.6388 50.1264 58.8557L58.4465 62.4909C59.4398 62.9248 60.2993 61.6648 59.5328 60.8984L53.1126 54.4782C52.7296 54.0951 52.7296 53.474 53.1126 53.091L54.2025 52.001C54.5856 51.618 55.2067 51.618 55.5898 52.001L62.7393 59.1505C63.4949 59.9061 64.7426 59.0802 64.3424 58.0895L60.5547 48.7148C60.3518 48.2125 60.5945 47.6408 61.0967 47.4379L62.5259 46.8604C63.0282 46.6575 63.5999 46.9002 63.8029 47.4025L67.3557 56.1959C67.7595 57.1956 69.246 56.9066 69.246 55.8285V46.3444C69.246 45.8027 69.6852 45.3635 70.2269 45.3635H71.7684Z" fill="url(#paint0_linear_489_5290)"/>
</g>
</g>
<defs>
<linearGradient id="paint0_linear_489_5290" x1="46.4743" y1="94.4083" x2="95.5196" y2="45.3629" gradientUnits="userSpaceOnUse">
<stop stop-color="#AD00FE"/>
<stop offset="1" stop-color="#00E0EE"/>
</linearGradient>
<clipPath id="clip0_489_5290">
<rect width="49.0451" height="49.0451" fill="white" transform="translate(46.4761 45.3625)"/>
</clipPath>
</defs>
</svg>
