<svg width="130" height="33" viewBox="0 0 130 33" fill="none" xmlns="http://www.w3.org/2000/svg">
<path fill-rule="evenodd" clip-rule="evenodd" d="M13.5162 1.16279C12.9417 1.29262 12.0955 1.52204 11.6357 1.67264C11.1758 1.82324 10.2845 2.20343 9.65494 2.51755C9.02539 2.83151 8.17917 3.31325 7.77446 3.5878C7.36974 3.86235 6.49703 4.60686 5.83526 5.2423C5.17333 5.87774 4.30765 6.85003 3.91144 7.4029C3.51507 7.95592 2.86279 9.10089 2.46183 9.94744C2.06088 10.7938 1.58929 12.1074 1.41383 12.8664C1.23837 13.6255 1.04395 14.7177 0.981808 15.2936L0.868652 16.3406L1.66614 16.2461C2.10487 16.1943 3.01273 15.8886 3.68366 15.567C4.43667 15.2063 5.14684 14.9824 5.53896 14.9824C6.07989 14.9824 6.15675 15.0249 6.05651 15.2686C5.99159 15.426 5.90394 15.6746 5.86143 15.8213C5.81368 15.9866 5.54338 16.12 5.14962 16.1728C4.80067 16.2196 4.02656 16.4959 3.42939 16.7869C2.83221 17.0778 2.01444 17.3528 1.61202 17.3983C0.963494 17.4713 0.890891 17.5199 0.972978 17.8259C1.024 18.0157 1.06668 18.2997 1.06782 18.4572C1.06946 18.6574 1.2006 18.7434 1.50475 18.7434C1.74381 18.7434 2.5902 18.4436 3.3854 18.0774C4.1806 17.7111 4.92887 17.435 5.04824 17.4642C5.20996 17.5036 5.22942 17.6522 5.12509 18.0484C5.02551 18.4271 4.88995 18.5799 4.65383 18.5799C4.4715 18.5799 3.83704 18.8374 3.24395 19.1522C2.65086 19.467 1.95083 19.7245 1.68854 19.7245C1.28972 19.7245 1.22676 19.778 1.30443 20.0515C1.35545 20.2314 1.43885 20.5258 1.48987 20.7056C1.55217 20.9247 1.72272 21.0327 2.00708 21.0327C2.24043 21.0327 2.75732 20.8417 3.15582 20.6082C3.55415 20.3747 4.0941 20.1222 4.35557 20.0471C4.80345 19.9188 4.83108 19.9387 4.83108 20.39C4.83108 20.737 4.75227 20.8693 4.54492 20.8698C4.38762 20.8703 3.92992 21.0886 3.52815 21.3553C3.12622 21.6218 2.59281 21.8849 2.34263 21.9399C2.09244 21.9948 1.88771 22.0682 1.88771 22.1031C1.88771 22.1377 2.01166 22.4262 2.16325 22.7441C2.31483 23.062 2.51073 23.322 2.5987 23.322C2.68651 23.322 3.09597 23.1091 3.50853 22.8489C3.92126 22.5887 4.41541 22.3291 4.60673 22.2718C4.88701 22.1881 4.97008 22.2484 5.03369 22.5814C5.09059 22.8788 5.04219 22.9949 4.86134 22.9949C4.723 22.9949 4.22132 23.2624 3.74662 23.5895C2.89026 24.1791 2.88519 24.1876 3.12017 24.6419C3.25049 24.8939 3.43184 25.1462 3.52325 25.2028C3.61482 25.2592 3.96312 25.08 4.29752 24.8043C4.63192 24.5286 5.04513 24.3031 5.21585 24.3031C5.46865 24.3031 5.50904 24.218 5.43415 23.8438C5.3483 23.4145 5.39033 23.3715 6.07008 23.1897C6.47038 23.0826 7.05349 22.8294 7.36582 22.627C7.74093 22.384 7.93454 22.1314 7.93601 21.883C7.937 21.6763 8.05751 21.2716 8.2037 20.9836C8.34972 20.6958 8.7062 20.166 8.99579 19.8063C9.28539 19.4465 9.60736 18.9914 9.71136 18.795C9.81519 18.5985 9.90022 18.1871 9.90022 17.8808C9.90022 17.5744 9.79067 16.9625 9.65674 16.521C9.52282 16.0795 9.41244 15.3083 9.41146 14.8071C9.41048 14.3061 9.52216 13.5702 9.65968 13.1719C9.7972 12.7737 10.0552 12.2639 10.233 12.039C10.5558 11.6309 10.5558 11.6314 10.2418 12.3661C10.0688 12.7708 9.87848 13.4355 9.81879 13.8433C9.73948 14.3849 9.82615 15.0565 10.1403 16.336L10.5705 18.0873L10.2408 18.7833C10.0595 19.1661 9.61259 19.8839 9.24778 20.3786C8.88296 20.8732 8.54088 21.5471 8.48757 21.8759C8.41562 22.3206 8.49803 22.7084 8.80889 23.3875L9.22701 24.301L8.66466 24.73C8.35528 24.966 7.82613 25.2575 7.48862 25.3779C7.15111 25.4984 6.70797 25.6001 6.50374 25.604C6.2614 25.6088 6.06714 25.4682 5.94499 25.2002C5.80256 24.8875 5.67583 24.8134 5.41698 24.8911C5.22958 24.9473 4.8404 25.2173 4.55179 25.4911L4.02738 25.989L4.35851 26.4542C4.54083 26.7101 4.79527 26.9194 4.92396 26.9194C5.05282 26.9194 5.15813 26.8509 5.15813 26.767C5.15813 26.6833 5.37921 26.4573 5.64934 26.2648C6.07286 25.9633 6.15397 25.9501 6.23785 26.1684C6.29786 26.325 6.13663 26.6202 5.8158 26.941L5.29646 27.4603L5.79602 27.9597L6.29541 28.4593L6.77158 28.0031C7.10942 27.6795 7.26967 27.6101 7.32314 27.7646C7.36467 27.8843 7.25659 28.1651 7.08309 28.3886L6.7675 28.795L7.27359 29.2471C7.5519 29.4958 7.85196 29.6993 7.94059 29.6993C8.02906 29.6993 8.1015 29.5958 8.1015 29.4693C8.1015 29.3428 8.47858 28.6812 8.93954 27.999C9.40034 27.3168 9.84005 26.5188 9.91641 26.2258C10.0355 25.7687 10.0476 25.8093 10.0011 26.5106C9.96285 27.0905 9.77677 27.6134 9.3611 28.3093C9.0388 28.849 8.72729 29.4875 8.66891 29.7284C8.57881 30.0989 8.63703 30.2047 9.04714 30.4168C9.31367 30.5546 9.57776 30.6212 9.63418 30.5648C9.69059 30.5085 9.7367 30.3324 9.7367 30.1738C9.7367 30.015 10.0678 29.2048 10.4725 28.3733C10.8773 27.5418 11.2084 26.6336 11.2084 26.3549C11.2084 26.056 10.9105 25.3257 10.4807 24.5719C10.0806 23.8696 9.67015 23.0433 9.5686 22.7356C9.46706 22.428 9.43223 21.9559 9.49142 21.6866C9.55062 21.4174 9.93309 20.7432 10.3417 20.1882C10.7502 19.6334 11.1871 18.9336 11.3127 18.633C11.4383 18.3324 11.4965 17.8847 11.4421 17.6383C11.3876 17.3917 11.1894 16.7116 11.0015 16.127C10.8092 15.5286 10.6609 14.6356 10.6622 14.083C10.6635 13.428 10.7868 12.8205 11.0333 12.255C11.2362 11.7893 11.5506 11.2742 11.7321 11.1104C12.0351 10.8372 12.0307 10.8731 11.6793 11.5485C11.4205 12.0456 11.2758 12.646 11.2332 13.3992C11.1822 14.3031 11.2568 14.7672 11.6273 15.852C11.8788 16.5878 12.0855 17.5328 12.0867 17.9519C12.0883 18.5329 11.9746 18.8771 11.6077 19.4011C11.3431 19.7788 10.919 20.3925 10.665 20.7648C10.2744 21.3373 10.2132 21.569 10.2672 22.2707C10.3159 22.9037 10.5093 23.3874 11.0844 24.3147C11.4988 24.9828 11.8881 25.8042 11.9496 26.1397C12.0451 26.6617 11.9405 27.0057 11.226 28.5173C10.7667 29.4891 10.3908 30.4753 10.3908 30.7087C10.3908 30.9723 10.499 31.1639 10.6769 31.2151C10.8344 31.2604 11.0818 31.3466 11.2269 31.4066C11.4358 31.4931 11.5125 31.3801 11.5951 30.8635C11.6525 30.5048 12.0358 29.5258 12.4469 28.688C13.0776 27.4026 13.184 27.0488 13.1281 26.422C13.081 25.8956 12.8186 25.2767 12.2265 24.2962C11.7671 23.5355 11.3788 22.7292 11.3634 22.5044C11.3482 22.2795 11.3438 21.9397 11.3538 21.7492C11.3637 21.5589 11.7766 20.7949 12.2713 20.0515C13.0467 18.8865 13.1706 18.5926 13.1706 17.9205C13.1706 17.4161 12.9621 16.6016 12.5797 15.612C12.0739 14.3035 12.0008 13.9491 12.0726 13.1544C12.1243 12.5816 12.3285 11.9097 12.6058 11.4002C12.8529 10.9461 13.2011 10.4442 13.3795 10.2848C13.6447 10.0477 13.62 10.1582 13.2427 10.8944C12.8595 11.6422 12.7813 12.0004 12.7787 13.0202C12.7761 14.0742 12.8609 14.4464 13.3819 15.668C13.8345 16.7293 13.9882 17.3167 13.9882 17.9856C13.9882 18.7916 13.9063 19.0017 13.1716 20.0797C12.7226 20.7388 12.3118 21.5052 12.259 21.7829C12.2013 22.087 12.2691 22.5425 12.4297 22.9275C12.5764 23.2794 12.9983 24.031 13.3672 24.5979C13.847 25.3351 14.0595 25.8544 14.1142 26.4215C14.1794 27.1006 14.0896 27.433 13.4898 28.7353C13.1044 29.5717 12.7563 30.5996 12.7159 31.0194C12.6755 31.4391 12.7062 31.8203 12.7839 31.8662C12.8617 31.9123 13.1461 31.9972 13.4159 32.0549C13.9058 32.1596 13.9065 32.1588 13.9302 31.3646C13.9436 30.9177 14.1473 30.1105 14.3959 29.5212C14.6389 28.9446 14.9888 28.0847 15.1734 27.6103C15.4593 26.8759 15.4815 26.655 15.3229 26.126C15.2205 25.7841 14.8305 25.0317 14.4564 24.454C14.0823 23.8763 13.6708 23.1527 13.542 22.8458C13.4009 22.5099 13.3482 22.0722 13.4094 21.7458C13.4653 21.4477 13.7801 20.8525 14.1088 20.4232C14.4374 19.994 14.7951 19.3865 14.9033 19.0734L15.1003 18.5041L16.6687 18.4942L18.2368 18.4844L18.4018 18.9818C18.4926 19.2554 18.8612 19.9122 19.2209 20.4415C19.7265 21.1854 19.875 21.5592 19.875 22.088C19.875 22.6044 19.7133 23.0297 19.2148 23.8238C18.8518 24.4022 18.402 25.199 18.2154 25.5944C17.9839 26.0853 17.9021 26.507 17.9579 26.9233C18.003 27.2587 18.3194 28.1494 18.6612 28.9024C19.075 29.8145 19.3063 30.5883 19.3537 31.2203L19.425 32.1691L19.9361 32.0597C20.2172 31.9993 20.5116 31.912 20.5901 31.8654C20.6687 31.819 20.6913 31.4295 20.6404 30.9999C20.5896 30.5705 20.2933 29.7135 19.9821 29.0955C19.6709 28.4774 19.337 27.6775 19.2402 27.3179C19.1228 26.8821 19.1164 26.4738 19.2211 26.0949C19.3076 25.782 19.7474 24.9411 20.1989 24.2262C20.8833 23.1426 21.0196 22.7989 21.0196 22.1585C21.0196 21.5025 20.8947 21.2053 20.1639 20.1237C19.3777 18.9599 19.3089 18.7826 19.3182 17.9416C19.3259 17.2563 19.4876 16.6567 19.9623 15.5547C20.4993 14.308 20.5945 13.9144 20.5842 12.9807C20.5752 12.1507 20.4708 11.6737 20.1621 11.0501L19.7522 10.2215L20.1392 10.5852C20.352 10.7852 20.6878 11.2826 20.8854 11.6906C21.1362 12.2088 21.2432 12.7306 21.2404 13.4213C21.2373 14.1558 21.0988 14.7464 20.7014 15.7182C20.3583 16.5574 20.1602 17.3268 20.1489 17.8643C20.1351 18.5225 20.2248 18.8384 20.5667 19.336C20.8061 19.6846 21.2268 20.2936 21.5014 20.6893C21.8493 21.1906 22.0007 21.6019 22.0007 22.0449C22.0007 22.3946 21.8604 22.9539 21.6889 23.2876C21.5174 23.6212 21.1127 24.3315 20.7896 24.8658C20.3552 25.5841 20.202 26.0218 20.202 26.5454C20.202 27.0461 20.3942 27.6358 20.8577 28.5579C21.2185 29.2753 21.5936 30.2353 21.6914 30.6913C21.8358 31.365 21.92 31.4998 22.1394 31.409C22.2879 31.3475 22.5382 31.2604 22.6957 31.2151C22.8533 31.1698 22.9819 30.9759 22.9819 30.7834C22.9819 30.5913 22.614 29.6618 22.1643 28.7181C21.6583 27.6564 21.3478 26.7839 21.3496 26.4293C21.3512 26.1064 21.5547 25.5 21.8161 25.0389C22.0711 24.5892 22.4835 23.867 22.7325 23.4338C23.0994 22.7957 23.1699 22.5086 23.1039 21.9219C23.0465 21.413 22.829 20.9417 22.3728 20.3374C22.0156 19.8643 21.6018 19.2423 21.4533 18.955C21.3046 18.6677 21.1831 18.208 21.1831 17.9333C21.1831 17.6587 21.4135 16.7293 21.695 15.8677C22.1219 14.561 22.1931 14.1288 22.1234 13.262C22.0675 12.5654 21.8989 11.9704 21.6122 11.4574C21.3674 11.0195 21.293 10.7821 21.4384 10.9027C21.5782 11.0187 21.8838 11.4399 22.1177 11.8389C22.4338 12.3785 22.562 12.864 22.6179 13.7354C22.6789 14.6876 22.613 15.1601 22.2652 16.2611C22.0297 17.0061 21.8374 17.7775 21.8376 17.9752C21.8376 18.1729 21.9664 18.571 22.1237 18.86C22.2809 19.1489 22.7222 19.838 23.1045 20.3912C23.6786 21.222 23.7995 21.5294 23.7995 22.1585C23.7995 22.7693 23.6492 23.1768 23.0398 24.2179C22.5953 24.9771 22.2495 25.7901 22.2065 26.1767C22.1463 26.7178 22.2693 27.1174 22.8844 28.3792C23.2978 29.2272 23.636 30.0917 23.636 30.3005C23.636 30.5095 23.6798 30.6804 23.7334 30.6804C23.7869 30.6804 24.0444 30.5541 24.3056 30.3999C24.6665 30.1867 24.7554 30.0397 24.6763 29.7867C24.619 29.6038 24.2511 28.8437 23.8588 28.0979C23.4664 27.3521 23.1454 26.5979 23.1454 26.4218C23.1454 26.2459 23.2007 26.1036 23.268 26.1057C23.3354 26.1079 23.5576 26.4573 23.7617 26.8825C23.9658 27.3074 24.3865 28.0526 24.6966 28.5383C25.0066 29.0239 25.2872 29.5019 25.3201 29.6007C25.3544 29.7037 25.6361 29.5845 25.983 29.3199L26.586 28.8599L26.2453 28.3813C26.0579 28.1182 25.954 27.8227 26.0145 27.7247C26.0845 27.6116 26.2984 27.7131 26.6009 28.0029L27.0772 28.4593L27.5752 27.9614L28.0731 27.4633L27.4825 26.9446C27.0339 26.5508 26.9273 26.3623 27.0396 26.1618C27.1669 25.9344 27.2781 25.9795 27.8376 26.4849L28.4878 27.0725L28.8657 26.5615C29.1448 26.1839 29.2012 25.9824 29.0815 25.79C28.9926 25.6467 28.6766 25.3638 28.3794 25.1616C28.0822 24.9591 27.7748 24.7936 27.6963 24.7936C27.6177 24.7936 27.4697 24.9776 27.3672 25.2024C27.2447 25.4713 27.0481 25.6112 26.793 25.6112C26.5798 25.6112 26.1357 25.4986 25.8062 25.3609C25.4765 25.2232 24.9639 24.9251 24.6668 24.6986C24.153 24.3067 24.1378 24.265 24.3548 23.8451C24.4802 23.6024 24.6671 23.0901 24.7703 22.7068C24.9315 22.1077 24.9135 21.9129 24.6431 21.3169C24.4699 20.9357 24.0264 20.2257 23.6575 19.7392C23.2886 19.2526 22.9423 18.6168 22.8878 18.3262C22.8273 18.0041 22.922 17.3122 23.1305 16.5519C23.3186 15.8666 23.4718 14.8467 23.4708 14.2856C23.4697 13.5501 23.3554 13.0144 23.0615 12.3661C22.8372 11.8714 22.7701 11.6139 22.9124 11.7938C23.0546 11.9736 23.3187 12.4061 23.4993 12.7549C23.6798 13.1035 23.867 13.7719 23.9152 14.24C23.9741 14.8107 23.8883 15.5802 23.6546 16.5757C23.4124 17.6072 23.3509 18.1787 23.4535 18.4481C23.5346 18.6615 23.8736 19.1931 24.2068 19.6297C24.5401 20.0663 24.9525 20.6525 25.123 20.9324C25.2937 21.2124 25.4337 21.6408 25.434 21.8843C25.4345 22.2326 25.583 22.4131 26.1296 22.7305C26.512 22.9526 27.0959 23.1836 27.4275 23.2443C27.9854 23.3463 28.0193 23.3843 27.8795 23.7519C27.7493 24.0941 27.7863 24.1713 28.1462 24.3081C28.3759 24.3955 28.8248 24.6659 29.1437 24.9091C29.7121 25.3427 29.7279 25.3452 29.9621 25.0316C30.0934 24.8558 30.2698 24.5861 30.3544 24.4326C30.4724 24.2179 30.4224 24.1082 30.138 23.9585C29.9344 23.8516 29.56 23.5909 29.3057 23.3794C29.0516 23.1679 28.6941 22.9949 28.5115 22.9949C28.276 22.9949 28.2083 22.9199 28.2788 22.7362C28.3334 22.594 28.3781 22.4051 28.3781 22.3165C28.3781 22.2265 28.5406 22.2027 28.746 22.2627C28.9484 22.3217 29.4203 22.5842 29.7946 22.8459C30.1691 23.1077 30.5812 23.322 30.7102 23.322C30.8392 23.322 31.0604 23.0276 31.2017 22.6679C31.4411 22.0584 31.4395 22.0138 31.1767 22.0138C31.0217 22.0138 30.5488 21.7943 30.1258 21.526C29.7027 21.2578 29.1733 20.9923 28.9491 20.936C28.6353 20.8572 28.5416 20.7277 28.5416 20.3722C28.5416 19.9405 28.5722 19.9196 29.0171 20.0471C29.2786 20.1222 29.8185 20.3747 30.2168 20.6082C30.6153 20.8417 31.1283 21.0327 31.3567 21.0327C31.7047 21.0327 31.7992 20.9265 31.9382 20.3786C32.1026 19.7312 32.0995 19.7245 31.6447 19.7245C31.3919 19.7245 30.6996 19.467 30.1063 19.1522C29.5129 18.8374 28.8856 18.5799 28.7125 18.5799C28.5391 18.5799 28.3664 18.5246 28.3285 18.4572C28.2907 18.3898 28.2114 18.1321 28.1522 17.8849C28.0675 17.5304 28.1028 17.4352 28.319 17.4352C28.47 17.4352 29.2436 17.7348 30.0383 18.1007C30.8328 18.4669 31.6491 18.7427 31.8519 18.7139C32.1454 18.6722 32.2309 18.5411 32.2702 18.0718C32.3189 17.4892 32.3107 17.4808 31.603 17.3837C31.2089 17.3297 30.3426 17.0249 29.6777 16.7062C29.013 16.3877 28.2783 16.127 28.045 16.127C27.7215 16.127 27.5564 15.9915 27.348 15.5547L27.0751 14.9824L27.7675 14.9842C28.2299 14.9853 28.9214 15.202 29.8497 15.6365C30.6142 15.9943 31.4789 16.2878 31.7711 16.2888C32.3006 16.2906 32.3025 16.2876 32.3025 15.4661C32.3025 15.0127 32.1856 14.0744 32.0429 13.3812C31.9 12.688 31.5703 11.5683 31.3103 10.8929C31.0503 10.2176 30.453 9.04023 29.9832 8.27659C29.4969 7.48645 28.5619 6.3181 27.8131 5.56525C27.0895 4.83775 26.0283 3.9271 25.4546 3.54185C24.881 3.15643 23.8827 2.59686 23.2361 2.29811C22.5896 1.99936 21.5136 1.5953 20.8451 1.40005C19.8913 1.12158 19.084 1.03246 17.0951 0.986019C15.2879 0.943831 14.2608 0.994522 13.5162 1.16279ZM17.5281 3.80364C17.6048 3.82212 18.0354 3.88753 18.4851 3.94901L19.3027 4.0607L18.6141 4.67325L17.9257 5.28596L18.2607 6.16881C18.4448 6.6543 18.6191 7.07553 18.6478 7.10463C18.6764 7.13374 19.0149 6.92934 19.3996 6.65054C19.7846 6.3719 20.4959 6.0285 20.9804 5.88755C21.4651 5.74676 21.8956 5.66549 21.9371 5.70719C21.9788 5.74888 21.7527 6.30158 21.4345 6.93555C21.1164 7.56936 20.8561 8.13383 20.8561 8.18992C20.8561 8.24601 21.1688 8.1129 21.5511 7.89427C21.9334 7.67565 22.527 7.40764 22.8702 7.29873C23.2134 7.18983 23.5316 7.13816 23.5773 7.18361C23.6227 7.22924 23.4504 7.55611 23.194 7.90997C22.9376 8.26383 22.5875 8.86444 22.4161 9.24463C22.1955 9.73388 22.0295 9.91032 21.8482 9.84867C21.7072 9.8006 21.0401 9.55744 20.3655 9.30807C19.2271 8.88717 18.963 8.85463 16.6863 8.85463C14.4472 8.85447 14.1267 8.89241 13.0071 9.28943C12.3326 9.5285 11.6586 9.77215 11.5093 9.83052C11.3273 9.90182 11.2058 9.83576 11.1405 9.62988C11.0869 9.46097 10.7195 8.8301 10.3241 8.22802C9.92851 7.6261 9.65805 7.13341 9.72297 7.13341C9.78772 7.13341 10.2121 7.24363 10.6657 7.37837C11.1193 7.51311 11.6846 7.77589 11.9217 7.96246C12.2521 8.2223 12.353 8.24617 12.353 8.06434C12.353 7.93368 12.1079 7.33978 11.8082 6.74424C11.4478 6.02834 11.3351 5.66173 11.4754 5.66173C11.592 5.66173 12.0396 5.78126 12.4699 5.92729C12.9003 6.07347 13.5703 6.41163 13.9588 6.67899C14.3473 6.94618 14.6858 7.13946 14.7108 7.10823C14.7357 7.07716 14.8946 6.65871 15.0639 6.17845L15.3716 5.30509L14.7032 4.68159L14.0347 4.05808L14.5225 3.96062C14.7908 3.90682 15.2132 3.863 15.4614 3.863C15.8558 3.863 15.9592 3.74821 16.2837 2.94843L16.6549 2.03386L17.0219 2.90199C17.2237 3.37947 17.4516 3.78517 17.5281 3.80364ZM15.787 6.90857C15.3823 7.2258 15.0328 7.53486 15.0102 7.59552C14.9877 7.65619 15.742 7.70574 16.6863 7.70574C17.6307 7.70574 18.4004 7.66894 18.3969 7.62398C18.3935 7.57901 18.0624 7.30086 17.6612 7.0057C17.2601 6.71055 16.8399 6.43829 16.7274 6.40051C16.6149 6.3629 16.1917 6.59151 15.787 6.90857ZM5.4039 9.54943C5.63234 9.88449 5.89299 10.4302 5.98292 10.7621L6.14661 11.3657L6.83797 11.0519C7.22781 10.8748 7.89759 10.7364 8.37425 10.7345C8.83914 10.7325 9.31744 10.7681 9.43713 10.8136C9.57792 10.8672 9.15424 11.4103 8.23984 12.3484C6.83258 13.7923 6.82031 13.8003 6.02724 13.7884C5.46554 13.7799 4.78955 13.9547 3.7404 14.3793C2.92133 14.7111 2.1325 14.9824 1.98762 14.9824C1.84274 14.9824 1.72419 14.943 1.72419 14.8948C1.72419 14.8465 2.08361 14.3381 2.52283 13.765C2.96204 13.1919 3.52504 12.2931 3.77376 11.7678C4.07431 11.1331 4.25238 10.4442 4.30487 9.71459C4.37715 8.70812 4.40887 8.63012 4.68604 8.77843C4.85234 8.86755 5.17529 9.21438 5.4039 9.54943ZM29.6829 12.0325C29.9521 12.5657 30.5104 13.417 30.9236 13.9244C31.337 14.4317 31.6349 14.8869 31.5858 14.936C31.5368 14.985 31.2181 14.9479 30.8776 14.8535C30.5372 14.7592 29.7848 14.4835 29.206 14.241C28.543 13.9633 27.8538 13.8 27.3443 13.8C26.542 13.8 26.5239 13.7882 25.1142 12.346C24.3326 11.5462 23.7292 10.8556 23.7735 10.8113C23.8178 10.7672 24.3016 10.7325 24.8488 10.7345C25.4597 10.7366 26.0999 10.8545 26.5077 11.0398L27.1721 11.3415L27.456 10.5423C27.612 10.1028 27.972 9.47863 28.2559 9.15535L28.7721 8.56733L28.9829 9.81532C29.0989 10.5024 29.4135 11.4989 29.6829 12.0325ZM18.1709 9.89626C18.5377 10.0629 18.9975 10.4024 19.1929 10.6506C19.3882 10.8988 19.5478 11.1474 19.5474 11.2026C19.5471 11.2579 19.1501 11.3032 18.6651 11.3032C18.0275 11.3032 17.6881 11.3894 17.4392 11.6147C17.1721 11.8565 17.0951 12.1196 17.0951 12.7906C17.0951 13.2659 17.1636 13.6973 17.2475 13.7491C17.3313 13.8008 17.4967 13.7132 17.6155 13.5544C17.7711 13.3457 18.0689 13.2622 18.6877 13.2535C19.3803 13.2439 19.5625 13.299 19.6392 13.5406C19.6913 13.7051 19.6205 14.2302 19.4817 14.7077C19.3431 15.185 19.0051 15.8855 18.7307 16.2642C18.4466 16.6562 17.9204 17.1041 17.5085 17.3042C16.8701 17.6143 16.7086 17.6327 16.1336 17.4604C15.7113 17.3338 15.2509 17.0027 14.8256 16.5197C14.4647 16.1096 14.0499 15.4143 13.9039 14.9747C13.7578 14.5352 13.662 13.9707 13.6906 13.7205C13.7426 13.2679 13.7495 13.2654 14.9694 13.2654C16.1325 13.2654 16.1985 13.2457 16.2502 12.8808C16.2801 12.6694 16.2607 12.3213 16.2069 12.1071C16.1533 11.893 15.88 11.5993 15.5999 11.4546C15.299 11.2989 14.8314 11.2159 14.4575 11.2515C14.1096 11.2847 13.8247 11.2646 13.8247 11.2069C13.8247 11.1492 13.9845 10.8988 14.1797 10.6506C14.3751 10.4024 14.835 10.0629 15.2017 9.89626C15.5687 9.72979 16.2366 9.59342 16.6863 9.59342C17.136 9.59342 17.804 9.72979 18.1709 9.89626ZM15.0227 12.0799C15.2621 12.255 15.1963 12.2866 14.5635 12.3C14.1572 12.3087 13.8247 12.2657 13.8247 12.2047C13.8247 12.1435 13.8738 12.0444 13.9338 11.9846C13.9936 11.9246 14.2003 11.8755 14.3931 11.8755C14.5857 11.8755 14.8691 11.9676 15.0227 12.0799ZM19.4997 12.1367C19.537 12.2505 19.2876 12.3101 18.8173 12.3002C18.4098 12.2913 18.0763 12.2353 18.0763 12.1752C18.0763 12.1154 18.1683 12.0274 18.2807 11.98C18.3932 11.9326 18.7001 11.9081 18.963 11.9255C19.226 11.943 19.4675 12.0379 19.4997 12.1367ZM41.8706 13.5227C41.512 13.6121 40.9775 13.8484 40.6827 14.0477C40.3878 14.247 40.0006 14.7093 39.822 15.075C39.6435 15.4406 39.4975 16.0368 39.4975 16.3998C39.4975 16.816 39.6351 17.2642 39.8703 17.613C40.0752 17.9171 40.5209 18.322 40.8606 18.5125C41.2004 18.7031 41.8731 18.9475 42.3558 19.0554C42.8383 19.1633 43.3214 19.3581 43.4293 19.4881C43.5822 19.6723 43.5806 19.7786 43.422 19.9698C43.3088 20.106 42.9548 20.2144 42.6253 20.2134C42.2989 20.2126 41.6384 20.0287 41.1574 19.8046C40.6763 19.5808 40.2542 19.3975 40.2194 19.3975C40.1847 19.3975 39.9377 19.8305 39.6706 20.3594L39.185 21.3216L40.1996 21.7863C41.0058 22.1554 41.507 22.2635 42.6367 22.3119C43.6509 22.3552 44.2886 22.2965 44.8588 22.1072C45.2985 21.961 45.8453 21.6411 46.0736 21.3962C46.302 21.1512 46.5715 20.7902 46.6724 20.5938C46.7733 20.3972 46.8556 19.8821 46.8552 19.4491C46.8549 18.9573 46.735 18.4654 46.536 18.139C46.3607 17.8517 46.0229 17.489 45.7852 17.3333C45.5474 17.1775 44.754 16.8765 44.0219 16.6645C43.2898 16.4525 42.623 16.2111 42.5401 16.1282C42.448 16.0361 42.477 15.8716 42.6145 15.706C42.7909 15.4934 43.0221 15.4535 43.6823 15.5215C44.1457 15.5694 44.8297 15.764 45.2022 15.954L45.8795 16.2996L46.0211 15.9272C46.0991 15.7223 46.2837 15.2658 46.4314 14.9126C46.6451 14.4014 46.6574 14.243 46.4917 14.1352C46.3773 14.061 45.9171 13.8889 45.4692 13.7531C45.0213 13.6172 44.1751 13.4733 43.5887 13.433C43.0024 13.393 42.2292 13.4334 41.8706 13.5227ZM102.24 13.5699C101.808 13.6917 101.15 14.0121 100.778 14.2819C100.406 14.5515 99.8874 15.1503 99.6263 15.6126C99.3143 16.165 99.122 16.7793 99.0652 17.4055C99.0074 18.0435 99.0692 18.6688 99.2525 19.2992C99.4341 19.9242 99.7442 20.4769 100.176 20.945C100.536 21.3363 101.2 21.8112 101.669 22.0126C102.402 22.3282 102.728 22.367 104.159 22.3085C105.443 22.2561 105.956 22.1626 106.492 21.8833L107.178 21.5254L106.805 20.6657C106.599 20.193 106.382 19.6715 106.322 19.5067C106.22 19.2231 106.182 19.2269 105.615 19.5772C105.218 19.8228 104.747 19.9508 104.213 19.9583C103.487 19.9686 103.355 19.9106 102.849 19.359C102.366 18.8315 102.289 18.6351 102.289 17.92C102.289 17.4646 102.405 16.8691 102.545 16.5967C102.688 16.3211 103.049 15.998 103.358 15.8688C103.664 15.7411 104.051 15.6365 104.219 15.6365C104.386 15.6365 104.885 15.8201 105.328 16.0446C105.77 16.2691 106.151 16.4531 106.175 16.4534C106.199 16.4538 106.404 16.0345 106.63 15.5217C106.857 15.0089 107.022 14.485 106.996 14.3574C106.971 14.2299 106.593 13.9857 106.157 13.8147C105.722 13.6438 104.839 13.4689 104.195 13.426C103.471 13.3779 102.726 13.4327 102.24 13.5699ZM120.995 13.5331C120.626 13.6162 120.029 13.9362 119.669 14.2443C119.217 14.6318 118.951 15.0316 118.809 15.541C118.688 15.9722 118.65 16.5296 118.717 16.8856C118.784 17.2445 119.047 17.7101 119.359 18.0221C119.742 18.4052 120.278 18.6695 121.308 18.9838C122.156 19.2421 122.729 19.5042 122.729 19.6326C122.729 19.751 122.618 19.9405 122.482 20.0535C122.316 20.191 121.983 20.2244 121.472 20.1544C121.053 20.097 120.461 19.9031 120.157 19.7237C119.853 19.5443 119.544 19.3975 119.47 19.3975C119.396 19.3975 119.124 19.8064 118.866 20.3061C118.406 21.1959 118.403 21.2199 118.713 21.4508C118.888 21.5805 119.424 21.8338 119.905 22.0136C120.503 22.2375 121.178 22.3405 122.041 22.3399C122.734 22.3394 123.587 22.2597 123.936 22.1629C124.284 22.0661 124.873 21.7039 125.244 21.3581C125.918 20.7293 125.918 20.7287 125.918 19.5041C125.918 18.4232 125.87 18.2278 125.509 17.8417C125.284 17.601 124.88 17.289 124.61 17.1482C124.34 17.0074 123.613 16.7617 122.994 16.6021C122.374 16.4425 121.792 16.2366 121.7 16.1445C121.587 16.0307 121.6 15.897 121.743 15.7251C121.87 15.5719 122.216 15.4736 122.627 15.4746C122.998 15.4754 123.691 15.6576 124.168 15.8793L125.034 16.2826L125.33 15.5915C125.492 15.2115 125.675 14.744 125.736 14.5523C125.828 14.2603 125.745 14.1637 125.219 13.9535C124.875 13.8155 124.16 13.6227 123.631 13.5249C123.102 13.4272 122.444 13.355 122.168 13.3647C121.892 13.3743 121.365 13.4502 120.995 13.5331ZM127.553 13.5426C127.373 13.6446 127.172 13.808 127.106 13.9056C127.04 14.0032 126.985 14.2487 126.983 14.451C126.982 14.6532 127.128 14.9661 127.308 15.1459C127.488 15.3258 127.814 15.473 128.032 15.473C128.266 15.473 128.568 15.2962 128.768 15.0421C128.954 14.8051 129.107 14.5075 129.107 14.3806C129.107 14.2538 128.926 13.9694 128.705 13.7486C128.485 13.5279 128.209 13.3495 128.092 13.3521C127.976 13.3549 127.733 13.4406 127.553 13.5426ZM48.0005 14.6554V15.8H49.2269H50.4533V18.9887V22.1773H52.0885H53.7238V18.9887V15.8H55.0319H56.3401V14.6554V13.5107H52.1703H48.0005V14.6554ZM59.3626 13.71C59.3196 13.8253 58.622 15.7475 57.8123 17.9817C57.0025 20.2159 56.3401 22.074 56.3401 22.1106C56.3401 22.1472 57.0664 22.1773 57.954 22.1773H59.568L59.774 21.4415L59.9801 20.7056H61.4092H62.8384L63.0444 21.4415L63.2505 22.1773H64.8644C65.752 22.1773 66.4779 22.1588 66.4774 22.1364C66.4769 22.114 65.788 20.1824 64.9465 17.844L63.4166 13.5925L61.4287 13.5465C59.9284 13.5119 59.4215 13.5519 59.3626 13.71ZM68.1136 17.8285V22.1773H69.667H71.2205V20.9509C71.2205 19.8486 71.2523 19.7245 71.5359 19.7245C71.7514 19.7245 72.0933 20.1127 72.6156 20.9509L73.3801 22.1773H74.9984C75.8885 22.1773 76.6166 22.1377 76.6166 22.0893C76.6166 22.0409 76.1693 21.3358 75.6224 20.5226C74.6861 19.1303 74.6456 19.0307 74.9275 18.8171C75.092 18.6924 75.2803 18.5879 75.3461 18.5851C75.4117 18.5821 75.6139 18.2885 75.7958 17.9323C75.9989 17.5341 76.1261 16.9648 76.1261 16.4541C76.1261 15.9612 76 15.3762 75.8159 15.0154C75.6272 14.6456 75.227 14.2479 74.7939 14C74.1194 13.6137 73.9259 13.5895 71.0978 13.5361L68.1136 13.4795V17.8285ZM78.5789 17.8313V22.1773L81.6449 22.1737C84.2686 22.1706 84.8053 22.1268 85.365 21.8697C85.7247 21.7046 86.1586 21.4125 86.3291 21.2209C86.5064 21.0215 86.6701 20.5393 86.7114 20.0941C86.7512 19.666 86.7042 19.1103 86.6073 18.8593C86.5103 18.6081 86.2099 18.277 85.9398 18.1235C85.6698 17.9698 85.4484 17.7938 85.4477 17.7323C85.4472 17.671 85.5781 17.5791 85.7385 17.5283C85.8989 17.4772 86.1564 17.2218 86.3108 16.9605C86.4652 16.6992 86.5911 16.2024 86.5907 15.8566C86.5904 15.5107 86.4519 15.001 86.283 14.724C86.1141 14.447 85.6912 14.0791 85.3434 13.9064C84.802 13.6376 84.2696 13.5848 81.6449 13.5388L78.5789 13.4852V17.8313ZM88.7456 16.6719L88.7989 19.8331L89.2949 20.6348C89.6641 21.2315 90.0199 21.5535 90.6861 21.8943C91.4296 22.2744 91.7927 22.3533 92.8287 22.3587C93.5149 22.3623 94.3794 22.2743 94.7501 22.1632C95.1208 22.0522 95.7119 21.7147 96.064 21.4135C96.4316 21.0987 96.8234 20.5531 96.9844 20.131C97.2083 19.5451 97.2688 18.8086 97.2835 16.4945L97.302 13.5925L95.7077 13.5457L94.1133 13.4989V16.2137C94.1133 17.9429 94.0452 19.058 93.9253 19.2856C93.8219 19.482 93.6563 19.6969 93.5574 19.7629C93.4585 19.829 93.1865 19.8841 92.9532 19.8856C92.7198 19.8869 92.3887 19.7333 92.2173 19.5441C91.9411 19.2393 91.8996 18.8778 91.8514 16.3555L91.7971 13.5107H90.2446H88.6921L88.7456 16.6719ZM108.994 17.844V22.1773H110.541H112.088L112.135 20.779L112.182 19.3806L113.014 20.7382L113.846 22.0956L115.671 22.1418C116.675 22.1672 117.497 22.1412 117.497 22.0839C117.497 22.0267 116.835 21.0753 116.025 19.9698C115.216 18.8642 114.553 17.907 114.553 17.8424C114.553 17.778 115.142 16.8264 115.862 15.7281C116.581 14.6297 117.17 13.6814 117.17 13.6208C117.17 13.5603 116.416 13.5109 115.494 13.5112L113.818 13.5115L112.961 15.0238L112.105 16.5358L112.103 15.0233L112.101 13.5107H110.547H108.994V17.844ZM128.583 13.8705C128.691 13.9784 128.78 14.2212 128.78 14.4101C128.78 14.5989 128.691 14.8418 128.583 14.9497C128.476 15.0576 128.233 15.1459 128.044 15.1459C127.855 15.1459 127.612 15.0576 127.504 14.9497C127.396 14.8418 127.308 14.5989 127.308 14.4101C127.308 14.2212 127.396 13.9784 127.504 13.8705C127.612 13.7625 127.855 13.6742 128.044 13.6742C128.233 13.6742 128.476 13.7625 128.583 13.8705ZM127.638 14.451C127.639 14.8825 127.684 14.9947 127.789 14.8293C127.904 14.647 127.989 14.6374 128.168 14.7867C128.36 14.9454 128.403 14.8802 128.421 14.4081C128.44 13.9048 128.395 13.8378 128.039 13.8378C127.681 13.8378 127.635 13.9073 127.638 14.451ZM128.245 14.2636C128.191 14.3179 128.049 14.3237 127.932 14.2765C127.801 14.2243 127.84 14.1856 128.03 14.1777C128.203 14.1707 128.299 14.2093 128.245 14.2636ZM15.9076 14.5244C15.752 14.6251 15.7618 14.6925 15.9505 14.8164C16.0854 14.9049 16.3797 14.9773 16.6046 14.9773C16.8294 14.9773 17.1148 14.9132 17.2387 14.8346C17.3627 14.7561 17.4181 14.6174 17.3617 14.5263C17.3054 14.4353 17.0008 14.3681 16.6847 14.3769C16.3686 14.3859 16.019 14.4523 15.9076 14.5244ZM15.7052 15.9635C15.9984 16.2695 16.34 16.4541 16.6131 16.4541C16.8539 16.4541 17.2449 16.3015 17.4819 16.1151C17.7188 15.9289 17.9127 15.7081 17.9127 15.6245C17.9127 15.5412 17.3103 15.473 16.574 15.473H15.2352L15.7052 15.9635ZM83.2801 15.7267C83.3926 15.7614 83.4845 15.9735 83.4845 16.1979C83.4845 16.4341 83.3512 16.6775 83.1683 16.7754C82.9943 16.8684 82.5896 16.9446 82.2689 16.9446C81.6866 16.9446 81.6858 16.9437 81.6858 16.2068V15.469L82.3807 15.5665C82.7629 15.62 83.1678 15.6921 83.2801 15.7267ZM72.823 15.9962C72.9309 16.1042 73.0192 16.3959 73.0192 16.6446C73.0192 16.9242 72.8985 17.1613 72.7029 17.266C72.529 17.359 72.1242 17.4352 71.8036 17.4352H71.2205V16.6176V15.8H71.9236C72.3103 15.8 72.715 15.8883 72.823 15.9962ZM61.7235 17.0645C61.8287 17.4933 61.9529 17.9727 62 18.1302C62.0718 18.3707 61.9763 18.4163 61.4012 18.4163C60.7697 18.4163 60.7251 18.388 60.8217 18.0484C60.8794 17.846 61.0102 17.334 61.1126 16.9105C61.215 16.487 61.3513 16.173 61.4156 16.2127C61.4799 16.2525 61.6185 16.6358 61.7235 17.0645ZM83.3172 19.0667C83.5205 19.2699 83.6009 19.4977 83.5336 19.6799C83.4747 19.8393 83.3476 20.0239 83.2512 20.09C83.1547 20.156 82.7629 20.2111 82.3807 20.2126L81.6858 20.2151V19.4792V18.7434H82.3399C82.7734 18.7434 83.103 18.8524 83.3172 19.0667ZM26.2523 30.5535C26.2523 30.6233 26.3259 30.6804 26.4158 30.6804C26.5057 30.6804 26.5793 30.9011 26.5793 31.1709C26.5793 31.4408 26.6529 31.6615 26.7428 31.6615C26.8328 31.6615 26.9064 31.4408 26.9064 31.1709C26.9064 30.9011 26.98 30.6804 27.0699 30.6804C27.1598 30.6804 27.2334 30.9011 27.2334 31.1709C27.2334 31.4408 27.307 31.6615 27.3969 31.6615C27.4869 31.6615 27.5616 31.5696 27.5629 31.4571C27.5647 31.3204 27.6188 31.334 27.7264 31.498C27.8697 31.716 27.9053 31.716 28.0486 31.498C28.1562 31.334 28.2103 31.3204 28.2121 31.4571C28.2134 31.5696 28.2881 31.6615 28.3781 31.6615C28.468 31.6615 28.5416 31.404 28.5416 31.0892C28.5416 30.6895 28.4677 30.5169 28.2963 30.5169C28.1614 30.5169 28.051 30.6272 28.051 30.7621C28.051 30.897 27.9853 31.0074 27.905 31.0074C27.8247 31.0074 27.7197 30.9052 27.6718 30.7805C27.6237 30.6552 27.2864 30.525 26.9185 30.49C26.552 30.4551 26.2523 30.4837 26.2523 30.5535Z" fill="white"/>
</svg>
